# This file uses centimeters as units for non-parametric coordinates.

mtllib base.mtl
g default
v -0.500000 0.104862 0.500000
v 0.500000 0.104862 0.500000
v -0.500000 0.104862 -0.500000
v 0.500000 0.104862 -0.500000
v 0.500000 -0.035225 0.500000
v -0.500000 -0.035225 0.500000
v -0.360000 0.104862 0.360000
v 0.360000 0.104862 0.360000
v 0.360000 0.104862 -0.360000
v -0.360000 0.104862 -0.360000
v -0.500000 -0.035225 -0.500000
v 0.500000 -0.035225 -0.500000
v -0.260000 0.026233 0.260000
v 0.260000 0.026233 0.260000
v 0.260000 0.026233 -0.260000
v -0.260000 0.026233 -0.260000
vt 0.666992 0.176108
vt 0.904033 0.176108
vt 0.904033 0.413150
vt 0.666992 0.413150
vt 0.589520 0.072032
vt 0.589520 0.527882
vt 0.525662 0.527882
vt 0.525662 0.072032
vt 0.993443 0.995874
vt 0.537593 0.995874
vt 0.601412 0.932055
vt 0.929624 0.932055
vt 0.537593 0.540024
vt 0.601412 0.603843
vt 0.993443 0.540024
vt 0.929624 0.603843
vt 0.005953 0.527882
vt 0.005953 0.072032
vt 0.069812 0.072032
vt 0.069812 0.527882
vt 0.069812 0.008173
vt 0.525662 0.008173
vt 0.525662 0.591740
vt 0.069812 0.591740
vt 0.621075 0.118119
vt 0.949287 0.118119
vt 0.962022 0.130191
vt 0.962022 0.458403
vt 0.949950 0.471138
vt 0.621739 0.471138
vt 0.609003 0.459066
vt 0.609003 0.130855
vn 0.000000 1.000000 0.000000
vn 0.000000 1.000000 0.000000
vn 0.000000 1.000000 0.000000
vn 0.000000 1.000000 0.000000
vn 0.000000 0.000000 1.000000
vn 0.000000 0.000000 1.000000
vn 0.000000 0.000000 1.000000
vn 0.000000 0.000000 1.000000
vn 0.000000 1.000000 0.000000
vn 0.000000 1.000000 0.000000
vn 0.000000 1.000000 0.000000
vn 0.000000 1.000000 0.000000
vn 0.000000 1.000000 0.000000
vn 0.000000 1.000000 0.000000
vn 0.000000 1.000000 0.000000
vn 0.000000 1.000000 0.000000
vn 0.000000 1.000000 0.000000
vn 0.000000 1.000000 0.000000
vn 0.000000 1.000000 0.000000
vn 0.000000 1.000000 0.000000
vn 0.000000 1.000000 0.000000
vn 0.000000 1.000000 0.000000
vn 0.000000 1.000000 0.000000
vn 0.000000 1.000000 0.000000
vn 0.000000 0.000000 -1.000000
vn 0.000000 0.000000 -1.000000
vn 0.000000 0.000000 -1.000000
vn 0.000000 0.000000 -1.000000
vn 1.000000 0.000000 0.000000
vn 1.000000 0.000000 0.000000
vn 1.000000 0.000000 0.000000
vn 1.000000 0.000000 0.000000
vn -1.000000 0.000000 0.000000
vn -1.000000 0.000000 0.000000
vn -1.000000 0.000000 0.000000
vn -1.000000 0.000000 0.000000
vn 0.000000 0.786100 -0.618099
vn 0.000000 0.786100 -0.618099
vn 0.000000 0.786100 -0.618099
vn 0.000000 0.786100 -0.618099
vn -0.618100 0.786100 0.000000
vn -0.618100 0.786100 0.000000
vn -0.618100 0.786100 0.000000
vn -0.618100 0.786100 0.000000
vn 0.000000 0.786100 0.618099
vn 0.000000 0.786100 0.618099
vn 0.000000 0.786100 0.618099
vn 0.000000 0.786100 0.618099
vn 0.618100 0.786100 0.000000
vn 0.618100 0.786100 0.000000
vn 0.618100 0.786100 0.000000
vn 0.618100 0.786100 0.000000
vn 0.000000 -1.000000 0.000000
vn 0.000000 -1.000000 0.000000
vn 0.000000 -1.000000 0.000000
vn 0.000000 -1.000000 0.000000
s off
g base
usemtl initialShadingGroup
f 13/1/1 14/2/2 15/3/3 16/4/4
f 2/5/5 1/6/6 6/7/7 5/8/8
f 1/9/9 2/10/10 8/11/11 7/12/12
f 2/10/13 4/13/14 9/14/15 8/11/16
f 4/13/17 3/15/18 10/16/19 9/14/20
f 3/15/21 1/9/22 7/12/23 10/16/24
f 3/17/25 4/18/26 12/19/27 11/20/28
f 4/21/29 2/22/30 5/8/31 12/19/32
f 1/23/33 3/24/34 11/20/35 6/7/36
f 7/25/37 8/26/38 14/2/39 13/1/40
f 8/27/41 9/28/42 15/3/43 14/2/44
f 9/29/45 10/30/46 16/4/47 15/3/48
f 10/31/49 7/32/50 13/1/51 16/4/52
f 5/8/53 6/7/54 11/20/55 12/19/56
