# This file uses centimeters as units for non-parametric coordinates.

mtllib cubo.mtl
g default
v -0.500000 -0.495537 0.500000
v 0.500000 -0.495537 0.500000
v -0.500000 0.504463 0.500000
v 0.500000 0.504463 0.500000
v -0.500000 0.504463 -0.500000
v 0.500000 0.504463 -0.500000
v -0.500000 -0.495537 -0.500000
v 0.500000 -0.495537 -0.500000
v -0.360000 -0.355537 0.500000
v 0.360000 -0.355537 0.500000
v 0.360000 0.364463 0.500000
v -0.360000 0.364463 0.500000
v -0.360000 0.504463 0.360000
v 0.360000 0.504463 0.360000
v 0.360000 0.504463 -0.360000
v -0.360000 0.504463 -0.360000
v -0.360000 0.364463 -0.500000
v 0.360000 0.364463 -0.500000
v 0.360000 -0.355537 -0.500000
v -0.360000 -0.355537 -0.500000
v -0.360000 -0.495537 -0.360000
v 0.360000 -0.495537 -0.360000
v 0.360000 -0.495537 0.360000
v -0.360000 -0.495537 0.360000
v 0.500000 -0.355537 -0.360000
v 0.500000 -0.355537 0.360000
v 0.500000 0.364463 -0.360000
v 0.500000 0.364463 0.360000
v -0.500000 -0.355537 -0.360000
v -0.500000 -0.355537 0.360000
v -0.500000 0.364463 0.360000
v -0.500000 0.364463 -0.360000
v -0.260000 -0.255537 0.421371
v 0.260000 -0.255537 0.421371
v 0.260000 0.264463 0.421371
v -0.260000 0.264463 0.421371
v -0.260000 0.425834 0.260000
v 0.260000 0.425834 0.260000
v 0.260000 0.425834 -0.260000
v -0.260000 0.425834 -0.260000
v -0.260000 0.264463 -0.421371
v 0.260000 0.264463 -0.421371
v 0.260000 -0.255537 -0.421371
v -0.260000 -0.255537 -0.421371
v -0.260000 -0.416908 -0.260000
v 0.260000 -0.416908 -0.260000
v 0.260000 -0.416908 0.260000
v -0.260000 -0.416908 0.260000
v 0.421371 -0.255537 -0.260000
v 0.421371 -0.255537 0.260000
v 0.421371 0.264463 -0.260000
v 0.421371 0.264463 0.260000
v -0.421371 -0.255537 -0.260000
v -0.421371 -0.255537 0.260000
v -0.421371 0.264463 0.260000
v -0.421371 0.264463 -0.260000
vt 0.856625 0.163720
vt 0.727362 0.163720
vt 0.727362 0.034456
vt 0.856625 0.034456
vt 0.533127 0.356228
vt 0.533127 0.226965
vt 0.662391 0.226965
vt 0.662391 0.356228
vt 0.034147 0.034456
vt 0.163410 0.034456
vt 0.163410 0.163719
vt 0.034147 0.163720
vt 0.034147 0.226965
vt 0.163410 0.226965
vt 0.163410 0.356228
vt 0.034147 0.356228
vt 0.662391 0.163720
vt 0.533128 0.163719
vt 0.533128 0.034456
vt 0.662391 0.034456
vt 0.727362 0.356228
vt 0.727362 0.226964
vt 0.856625 0.226964
vt 0.856625 0.356228
vt 0.251294 0.997166
vt 0.251294 0.748583
vt 0.285909 0.783385
vt 0.285909 0.962365
vt 0.499877 0.748583
vt 0.464889 0.783385
vt 0.499877 0.997166
vt 0.464889 0.962365
vt 0.534492 0.783509
vt 0.534492 0.962489
vt 0.748273 0.748583
vt 0.713472 0.783509
vt 0.748273 0.997166
vt 0.713472 0.962489
vt 0.499877 0.251417
vt 0.499877 0.500000
vt 0.465138 0.465198
vt 0.465138 0.286219
vt 0.251294 0.500000
vt 0.286158 0.465198
vt 0.251294 0.251417
vt 0.286158 0.286219
vt 0.002524 0.997166
vt 0.002524 0.748583
vt 0.037326 0.783260
vt 0.037326 0.962240
vt 0.216306 0.783260
vt 0.216306 0.962240
vt 0.286033 0.534802
vt 0.286033 0.713781
vt 0.465013 0.534802
vt 0.465013 0.713781
vt 0.251294 0.002834
vt 0.286282 0.037636
vt 0.286282 0.216615
vt 0.499877 0.002834
vt 0.465262 0.037636
vt 0.465262 0.216615
vt 0.883779 0.195342
vt 0.704799 0.195342
vt 0.695739 0.190873
vt 0.695739 0.011893
vt 0.700208 0.002834
vt 0.879188 0.002834
vt 0.888247 0.007303
vt 0.888247 0.186283
vt 0.501505 0.380776
vt 0.501505 0.201796
vt 0.508579 0.195342
vt 0.687559 0.195342
vt 0.694013 0.202416
vt 0.694013 0.381396
vt 0.686939 0.387850
vt 0.507959 0.387850
vt 0.009438 0.002834
vt 0.188418 0.002834
vt 0.195032 0.009748
vt 0.195032 0.188728
vt 0.188118 0.195342
vt 0.009139 0.195342
vt 0.002524 0.188428
vt 0.002524 0.009448
vt 0.009438 0.195342
vt 0.188418 0.195342
vt 0.195032 0.202256
vt 0.195032 0.381236
vt 0.188119 0.387850
vt 0.009139 0.387850
vt 0.002524 0.380936
vt 0.002524 0.201956
vt 0.687100 0.195342
vt 0.508120 0.195342
vt 0.501505 0.188428
vt 0.501505 0.009448
vt 0.508419 0.002834
vt 0.687399 0.002834
vt 0.694013 0.009748
vt 0.694013 0.188727
vt 0.695739 0.381082
vt 0.695739 0.202102
vt 0.702508 0.195342
vt 0.881487 0.195342
vt 0.888247 0.202110
vt 0.888247 0.381090
vt 0.881479 0.387850
vt 0.702500 0.387850
vn 0.000000 0.000000 1.000000
vn 0.000000 0.000000 1.000000
vn 0.000000 0.000000 1.000000
vn 0.000000 0.000000 1.000000
vn 0.000000 1.000000 0.000000
vn 0.000000 1.000000 0.000000
vn 0.000000 1.000000 0.000000
vn 0.000000 1.000000 0.000000
vn 0.000000 0.000000 -1.000000
vn 0.000000 0.000000 -1.000000
vn 0.000000 0.000000 -1.000000
vn 0.000000 0.000000 -1.000000
vn 0.000000 -1.000000 0.000000
vn 0.000000 -1.000000 0.000000
vn 0.000000 -1.000000 0.000000
vn 0.000000 -1.000000 0.000000
vn 1.000000 0.000000 0.000000
vn 1.000000 0.000000 0.000000
vn 1.000000 0.000000 0.000000
vn 1.000000 0.000000 0.000000
vn -1.000000 0.000000 0.000000
vn -1.000000 0.000000 0.000000
vn -1.000000 0.000000 0.000000
vn -1.000000 0.000000 0.000000
vn 0.000000 0.000000 1.000000
vn 0.000000 0.000000 1.000000
vn 0.000000 0.000000 1.000000
vn 0.000000 0.000000 1.000000
vn 0.000000 0.000000 1.000000
vn 0.000000 0.000000 1.000000
vn 0.000000 0.000000 1.000000
vn 0.000000 0.000000 1.000000
vn 0.000000 0.000000 1.000000
vn 0.000000 0.000000 1.000000
vn 0.000000 0.000000 1.000000
vn 0.000000 0.000000 1.000000
vn 0.000000 0.000000 1.000000
vn 0.000000 0.000000 1.000000
vn 0.000000 0.000000 1.000000
vn 0.000000 0.000000 1.000000
vn 0.000000 1.000000 0.000000
vn 0.000000 1.000000 0.000000
vn 0.000000 1.000000 0.000000
vn 0.000000 1.000000 0.000000
vn 0.000000 1.000000 0.000000
vn 0.000000 1.000000 0.000000
vn 0.000000 1.000000 0.000000
vn 0.000000 1.000000 0.000000
vn 0.000000 1.000000 0.000000
vn 0.000000 1.000000 0.000000
vn 0.000000 1.000000 0.000000
vn 0.000000 1.000000 0.000000
vn 0.000000 1.000000 0.000000
vn 0.000000 1.000000 0.000000
vn 0.000000 1.000000 0.000000
vn 0.000000 1.000000 0.000000
vn 0.000000 0.000000 -1.000000
vn 0.000000 0.000000 -1.000000
vn 0.000000 0.000000 -1.000000
vn 0.000000 0.000000 -1.000000
vn 0.000000 0.000000 -1.000000
vn 0.000000 0.000000 -1.000000
vn 0.000000 0.000000 -1.000000
vn 0.000000 0.000000 -1.000000
vn 0.000000 0.000000 -1.000000
vn 0.000000 0.000000 -1.000000
vn 0.000000 0.000000 -1.000000
vn 0.000000 0.000000 -1.000000
vn 0.000000 0.000000 -1.000000
vn 0.000000 0.000000 -1.000000
vn 0.000000 0.000000 -1.000000
vn 0.000000 0.000000 -1.000000
vn 0.000000 -1.000000 0.000000
vn 0.000000 -1.000000 0.000000
vn 0.000000 -1.000000 0.000000
vn 0.000000 -1.000000 0.000000
vn 0.000000 -1.000000 0.000000
vn 0.000000 -1.000000 0.000000
vn 0.000000 -1.000000 0.000000
vn 0.000000 -1.000000 0.000000
vn 0.000000 -1.000000 0.000000
vn 0.000000 -1.000000 0.000000
vn 0.000000 -1.000000 0.000000
vn 0.000000 -1.000000 0.000000
vn 0.000000 -1.000000 0.000000
vn 0.000000 -1.000000 0.000000
vn 0.000000 -1.000000 0.000000
vn 0.000000 -1.000000 0.000000
vn 1.000000 0.000000 0.000000
vn 1.000000 0.000000 0.000000
vn 1.000000 0.000000 0.000000
vn 1.000000 0.000000 0.000000
vn 1.000000 0.000000 0.000000
vn 1.000000 0.000000 0.000000
vn 1.000000 0.000000 0.000000
vn 1.000000 0.000000 0.000000
vn 1.000000 0.000000 0.000000
vn 1.000000 0.000000 0.000000
vn 1.000000 0.000000 0.000000
vn 1.000000 0.000000 0.000000
vn 1.000000 0.000000 0.000000
vn 1.000000 0.000000 0.000000
vn 1.000000 0.000000 0.000000
vn 1.000000 0.000000 0.000000
vn -1.000000 0.000000 0.000000
vn -1.000000 0.000000 0.000000
vn -1.000000 0.000000 0.000000
vn -1.000000 0.000000 0.000000
vn -1.000000 0.000000 0.000000
vn -1.000000 0.000000 0.000000
vn -1.000000 0.000000 0.000000
vn -1.000000 0.000000 0.000000
vn -1.000000 0.000000 0.000000
vn -1.000000 0.000000 0.000000
vn -1.000000 0.000000 0.000000
vn -1.000000 0.000000 0.000000
vn -1.000000 0.000000 0.000000
vn -1.000000 0.000000 0.000000
vn -1.000000 0.000000 0.000000
vn -1.000000 0.000000 0.000000
vn 0.000000 0.618100 0.786100
vn 0.000000 0.618100 0.786100
vn 0.000000 0.618100 0.786100
vn 0.000000 0.618100 0.786100
vn -0.618099 0.000000 0.786100
vn -0.618099 0.000000 0.786100
vn -0.618099 0.000000 0.786100
vn -0.618099 0.000000 0.786100
vn 0.000000 -0.618100 0.786100
vn 0.000000 -0.618100 0.786100
vn 0.000000 -0.618100 0.786100
vn 0.000000 -0.618100 0.786100
vn 0.618099 0.000000 0.786100
vn 0.618099 0.000000 0.786100
vn 0.618099 0.000000 0.786100
vn 0.618099 0.000000 0.786100
vn 0.000000 0.786100 -0.618099
vn 0.000000 0.786100 -0.618099
vn 0.000000 0.786100 -0.618099
vn 0.000000 0.786100 -0.618099
vn -0.618100 0.786100 0.000000
vn -0.618100 0.786100 0.000000
vn -0.618100 0.786100 0.000000
vn -0.618100 0.786100 0.000000
vn 0.000000 0.786100 0.618099
vn 0.000000 0.786100 0.618099
vn 0.000000 0.786100 0.618099
vn 0.000000 0.786100 0.618099
vn 0.618100 0.786100 0.000000
vn 0.618100 0.786100 0.000000
vn 0.618100 0.786100 0.000000
vn 0.618100 0.786100 0.000000
vn 0.000000 -0.618100 -0.786100
vn 0.000000 -0.618100 -0.786100
vn 0.000000 -0.618100 -0.786100
vn 0.000000 -0.618100 -0.786100
vn -0.618099 0.000000 -0.786100
vn -0.618099 0.000000 -0.786100
vn -0.618099 0.000000 -0.786100
vn -0.618099 0.000000 -0.786100
vn 0.000000 0.618100 -0.786100
vn 0.000000 0.618100 -0.786100
vn 0.000000 0.618100 -0.786100
vn 0.000000 0.618100 -0.786100
vn 0.618099 0.000000 -0.786100
vn 0.618099 0.000000 -0.786100
vn 0.618099 0.000000 -0.786100
vn 0.618099 0.000000 -0.786100
vn 0.000000 -0.786100 0.618099
vn 0.000000 -0.786100 0.618099
vn 0.000000 -0.786100 0.618099
vn 0.000000 -0.786100 0.618099
vn -0.618100 -0.786100 0.000000
vn -0.618100 -0.786100 0.000000
vn -0.618100 -0.786100 0.000000
vn -0.618100 -0.786100 0.000000
vn 0.000000 -0.786100 -0.618099
vn 0.000000 -0.786100 -0.618099
vn 0.000000 -0.786100 -0.618099
vn 0.000000 -0.786100 -0.618099
vn 0.618100 -0.786100 0.000000
vn 0.618100 -0.786100 0.000000
vn 0.618100 -0.786100 0.000000
vn 0.618100 -0.786100 0.000000
vn 0.786100 0.618099 0.000000
vn 0.786100 0.618099 0.000000
vn 0.786100 0.618099 0.000000
vn 0.786100 0.618099 0.000000
vn 0.786100 0.000000 0.618100
vn 0.786100 0.000000 0.618100
vn 0.786100 0.000000 0.618100
vn 0.786100 0.000000 0.618100
vn 0.786100 -0.618099 0.000000
vn 0.786100 -0.618099 0.000000
vn 0.786100 -0.618099 0.000000
vn 0.786100 -0.618099 0.000000
vn 0.786100 0.000000 -0.618100
vn 0.786100 0.000000 -0.618100
vn 0.786100 0.000000 -0.618100
vn 0.786100 0.000000 -0.618100
vn -0.786100 0.618099 0.000000
vn -0.786100 0.618099 0.000000
vn -0.786100 0.618099 0.000000
vn -0.786100 0.618099 0.000000
vn -0.786100 0.000000 -0.618100
vn -0.786100 0.000000 -0.618100
vn -0.786100 0.000000 -0.618100
vn -0.786100 0.000000 -0.618100
vn -0.786100 -0.618099 0.000000
vn -0.786100 -0.618099 0.000000
vn -0.786100 -0.618099 0.000000
vn -0.786100 -0.618099 0.000000
vn -0.786100 0.000000 0.618100
vn -0.786100 0.000000 0.618100
vn -0.786100 0.000000 0.618100
vn -0.786100 0.000000 0.618100
s off
g cubo
usemtl initialShadingGroup
f 33/1/1 34/2/2 35/3/3 36/4/4
f 37/5/5 38/6/6 39/7/7 40/8/8
f 41/9/9 42/10/10 43/11/11 44/12/12
f 45/13/13 46/14/14 47/15/15 48/16/16
f 50/17/17 49/18/18 51/19/19 52/20/20
f 53/21/21 54/22/22 55/23/23 56/24/24
f 1/25/25 2/26/26 10/27/27 9/28/28
f 2/26/29 4/29/30 11/30/31 10/27/32
f 4/29/33 3/31/34 12/32/35 11/30/36
f 3/31/37 1/25/38 9/28/39 12/32/40
f 3/31/41 4/29/42 14/33/43 13/34/44
f 4/29/45 6/35/46 15/36/47 14/33/48
f 6/35/49 5/37/50 16/38/51 15/36/52
f 5/37/53 3/31/54 13/34/55 16/38/56
f 5/39/57 6/40/58 18/41/59 17/42/60
f 6/40/61 8/43/62 19/44/63 18/41/64
f 8/43/65 7/45/66 20/46/67 19/44/68
f 7/45/69 5/39/70 17/42/71 20/46/72
f 7/47/73 8/48/74 22/49/75 21/50/76
f 8/48/77 2/26/78 23/51/79 22/49/80
f 2/26/81 1/25/82 24/52/83 23/51/84
f 1/25/85 7/47/86 21/50/87 24/52/88
f 2/26/89 8/43/90 25/53/91 26/54/92
f 8/43/93 6/40/94 27/55/95 25/53/96
f 6/40/97 4/29/98 28/56/99 27/55/100
f 4/29/101 2/26/102 26/54/103 28/56/104
f 7/45/105 1/57/106 30/58/107 29/59/108
f 1/57/109 3/60/110 31/61/111 30/58/112
f 3/60/113 5/39/114 32/62/115 31/61/116
f 5/39/117 7/45/118 29/59/119 32/62/120
f 9/63/121 10/64/122 34/2/123 33/1/124
f 10/65/125 11/66/126 35/3/127 34/2/128
f 11/67/129 12/68/130 36/4/131 35/3/132
f 12/69/133 9/70/134 33/1/135 36/4/136
f 13/71/137 14/72/138 38/6/139 37/5/140
f 14/73/141 15/74/142 39/7/143 38/6/144
f 15/75/145 16/76/146 40/8/147 39/7/148
f 16/77/149 13/78/150 37/5/151 40/8/152
f 17/79/153 18/80/154 42/10/155 41/9/156
f 18/81/157 19/82/158 43/11/159 42/10/160
f 19/83/161 20/84/162 44/12/163 43/11/164
f 20/85/165 17/86/166 41/9/167 44/12/168
f 21/87/169 22/88/170 46/14/171 45/13/172
f 22/89/173 23/90/174 47/15/175 46/14/176
f 23/91/177 24/92/178 48/16/179 47/15/180
f 24/93/181 21/94/182 45/13/183 48/16/184
f 26/95/185 25/96/186 49/18/187 50/17/188
f 25/97/189 27/98/190 51/19/191 49/18/192
f 27/99/193 28/100/194 52/20/195 51/19/196
f 28/101/197 26/102/198 50/17/199 52/20/200
f 29/103/201 30/104/202 54/22/203 53/21/204
f 30/105/205 31/106/206 55/23/207 54/22/208
f 31/107/209 32/108/210 56/24/211 55/23/212
f 32/109/213 29/110/214 53/21/215 56/24/216
